<svg class="dataviz-museos-system-reference" xmlns="http://www.w3.org/2000/svg" xmlns:xlink="http://www.w3.org/1999/xlink" x="0px" y="0px" viewBox="0 0 380 300" enable-background="new 0 0 380 300" xml:space="preserve">
<g>
	<path fill="#F2FF97" d="M232.7,29.8v1.3l-1.3-0.4C231.8,30.4,232.2,30,232.7,29.8 M244.4,14.6c-14.4,0-26.6,8.8-31,22.6 l31,10.1V14.6L244.4,14.6z"/>
	<path fill="#9ED79A" d="M224.1,53l1.3,0.4l-0.8,1.1C224.4,54,224.3,53.5,224.1,53 M213.3,37.1c-4.5,13.7,0.2,28,11.9,36.5 l19.2-26.4L213.3,37.1L213.3,37.1z"/>
	<path fill="#068B78" d="M244.4,67.2l0.8,1.1c-0.3,0-0.5,0-0.8,0s-0.5,0-0.8,0L244.4,67.2 M244.4,47.2l-19.2,26.4 c5.8,4.2,12.5,6.4,19.2,6.4c6.7,0,13.4-2.1,19.2-6.4L244.4,47.2L244.4,47.2z"/>
	<path fill="#FFCF5E" d="M264.6,53c-0.1,0.5-0.3,1-0.5,1.5l-0.8-1.1L264.6,53 M275.4,37.1l-31,10.1l19.2,26.4 C275.2,65.2,279.9,50.9,275.4,37.1L275.4,37.1z"/>
	<path fill="#0E918C" d="M256.1,29.8c0.4,0.3,0.9,0.6,1.3,0.9l-1.3,0.4V29.8 M244.4,14.6v32.6l31-10.1 C271,23.4,258.8,14.6,244.4,14.6L244.4,14.6z"/>
	<circle fill="#031F30" cx="244.4" cy="47.2" r="26.2"/>
	<g stroke="#031F30" stroke-width="4" >
		<line x1="244.4" y1="7.9" x2="244.4" y2="38.9"/>
		<line x1="281.1" y1="35.3" x2="250.4" y2="45.2"/>
		<line x1="250.1" y1="55.1" x2="264.5" y2="75"/>
		<line x1="224" y1="75.3" x2="240.1" y2="53.2"/>
		<line x1="237" y1="44.8" x2="212.2" y2="36.8"/>
	</g>
</g>

<g fill="#ffdfbc" font-weight="300" font-size="13">
	<text x="289.4" y="27">Antropología</text>
	<text x="289.4" y="68.5">Barrio Clínicas</text>
	<text x="185.5" y="110">Ciudad Universitaria</text>
	<text x="47" y="27">Observatorio Astronómico</text>
	<text x="92.7" y="68.5">Manzana Jesuítica</text>
</g>

<g fill="#ffdfbc" font-weight="300" font-size="13" style="letter-spacing: 1px; font-style:normal;">
	<text x="0" y="0" transform="rotate(-90) translate(-65 20)">NODOS</text>
	<text x="0" y="0" transform="rotate(-90) translate(-258 20)">REFERENCIAS</text>
</g>

<g fill="none" stroke="#fff" stroke-linecap="round" stroke-width="2">
	<g stroke-opacity="0.85">
		<line opacity="0.5" x1="59.6" y1="229.8" x2="270.6" y2="169.5"/>
		<line opacity="0.5" x1="59.6" y1="229.8" x2="270.6" y2="290.2"/>
	</g>
	<g stroke-opacity="0.15">
		<line x1="59.6" y1="229.8" x2="264.1" y2="193"/>
		<line x1="59.6" y1="229.8" x2="264.1" y2="217.5"/>
		<line x1="59.6" y1="229.8" x2="264.1" y2="242.1"/>
		<line x1="59.6" y1="229.8" x2="264.1" y2="266.7"/>
	</g>
</g>

<g>
	<text transform="matrix(1 0 0 1 290 194)" fill="#ffdfbc" font-weight="300" font-size="13">
		<tspan x="0" y="0">Fundación</tspan>
		<tspan x="0" y="27">Objectos</tspan>
		<tspan x="0" y="54">Colecciones</tspan>
		<tspan x="0" y="81">Superficie</tspan>
	</text>
</g>

<g stroke="#2E414D" stroke-width="1">
	<line x1="32" y1="4" x2="32" y2="124"/>
	<line x1="32" y1="159" x2="32" y2="296"/>
</g>
</svg>
