<svg xmlns="http://www.w3.org/2000/svg" xmlns:xlink="http://www.w3.org/1999/xlink" x="0px" y="0px" viewBox="0 0 192 32" enable-background="new 0 0 192 32" xml:space="preserve">
	<g fill="none" stroke="#031f30" stroke-width="1.1" stroke-linecap="round" stroke-linejoin="round" >
		<circle cx="16" cy="16" r="9"/>
		<line x1="7.6" y1="13" x2="24.4" y2="13"/>
		<line x1="7.6" y1="19" x2="24.4" y2="19"/>
		<path d="M15.5,7 c-3.4,5.5-3.4,12.5,0,18"/>
		<path d="M16.5,7 c3.4,5.5,3.4,12.5,0,18"/>
		<path d="M75,14v4h3v7h4v-7h3l1-4 h-4v-2c0-0.6,0.4-1,1-1h3V7h-3c-2.8,0-5,2.2-5,5v2H75"/>
		<path d="M108,8h8c2.2,0,4,1.8,4,4 v8c0,2.2-1.8,4-4,4h-8c-2.2,0-4-1.8-4-4v-8C104,9.8,105.8,8,108,8z"/>
		<circle cx="112" cy="16" r="3"/>
		<line x1="116.5" y1="11.5" x2="116.5" y2="11.5"/>
		<path d="M154,8.1c-1,0.5-2,0.7-3,1 c-1.1-1.3-2.8-1.3-4.4-0.7c-1.6,0.6-2.6,2.1-2.6,3.7v1c-3.2,0.1-6.1-1.4-8-4c0,0-4.2,7.4,4,11c-1.9,1.2-3.7,2.1-6,2 c3.3,1.8,6.9,2.4,10,1.5c3.6-1,6.5-3.7,7.7-7.7c0.3-1.2,0.5-2.5,0.5-3.8C152.2,11.9,153.7,9.3,154,8.1L154,8.1z"/>
		<path d="M171,9h10 c2.2,0,4,1.8,4,4v6c0,2.2-1.8,4-4,4h-10c-2.2,0-4-1.8-4-4v-6C167,10.8,168.8,9,171,9z"/>
		<path d="M174,13l5,3l-5,3V13z"/>
		<path d="M41,9h14c1.1,0,2,0.9,2,2 v10c0,1.1-0.9,2-2,2H41c-1.1,0-2-0.9-2-2V11C39,9.9,39.9,9,41,9z"/>
		<polyline points="39,11 48,17 57,11 "/>
	</g>
</svg>
