<svg xmlns="http://www.w3.org/2000/svg" xml:space="preserve" viewBox="0 0 550 60"><g fill="#0E2537"><path d="M406.1 24h4.8c2.6 0 4.7.2 6.4 1.5 1.5 1.1 2.4 2.8 2.4 4.6 0 4-3 6.5-8.5 6.5h-1.5v8h-3.6V24zm5.3 9.5c3.2 0 4.8-1.2 4.8-3.3 0-2.3-1.7-3.2-5.1-3.2h-1.3v6.5h1.6z"/><path d="M416.3 15h4.8c2.6 0 4.7.2 6.4 1.4 1.5 1 2.4 2.6 2.4 4.4 0 2.7-1.6 4.7-4.5 5.7l6.7 9h-4.2l-6.3-8.5h-1.7v8.5h-3.5V15zm5.2 9.4c3.2 0 4.8-1.2 4.8-3.3 0-2.3-1.7-3.2-5.1-3.2h-1.3v6.5h1.6z"/><path d="M427.4 21.5c3.2-4.5 9.4-5.5 13.9-2.3.5.4 1 .8 1.5 1.3 2 2.1 3.1 4.9 3 7.8.1 2.9-1 5.7-3 7.8-3.7 4-9.9 4.2-13.9.6-.2-.2-.4-.3-.5-.5-2-2.1-3.1-4.9-3-7.8-.2-2.6.6-5 2-6.9m8.1 14.2c3.6 0 6.5-3.1 6.5-7.5 0-4.3-2.9-7.5-6.5-7.5-3.7 0-6.5 3.1-6.5 7.5s2.8 7.5 6.5 7.5z"/><path d="M444.3 23h.3l7.3 15.1 7.3-15.1h.3l4.2 21.3h-3.6l-2.2-11.7-5.8 12.4h-.3l-6.1-12.4-2.2 11.7h-3.4z"/><path d="M461.7 32.2c0 4 1.7 6 5 6 3.2 0 4.9-2.1 4.9-6.1V20.2h3.2v12c0 6-3.3 9.3-8.3 9.3-5.4 0-8.6-3.2-8.6-9.2v-12h3.7l.1 11.9zM483 27.9v-3.2c0-1.3 0-2.5-.1-3.7 0-.6 0-1.1-.1-1.5H485.4c2 0 3.3 1 3.3 2.8 0 2.1-1.4 3.3-3.4 3.3-.3 0-.6 0-.8-.1v-.7c.3 0 .6.1.9.1 1.3 0 2.2-.8 2.2-2.3s-.9-2.2-2.6-2.2c-.4 0-.7 0-1.1.1v7.6c0 .7.1 1.4.1 1.9h-1.2c.1-.7.1-1.3.2-2.1M490.3 28.7v-3.9c0-.5-.1-1-.3-1.5l1.2-.2v5.6c0 .4 0 .8.1 1.2h-1.1c0-.5.1-.8.1-1.2m2.5-4.7c-.6 0-1.1.1-1.6.4.3-.9 1-1.3 2.1-1.3h.5l-.1 1c-.3-.1-.6-.1-.9-.1M494.5 26.5c0-2 1.2-3.5 3-3.5s3 1.4 3 3.4-1.1 3.5-3 3.5c-1.8 0-3-1.4-3-3.4m5.1.2c0-1.7-.8-2.8-2.1-2.8-1.4 0-2.1 1-2.1 2.6s.9 2.7 2.2 2.7c1.3 0 2-1 2-2.5M507.7 24.1h-1.1c.3.4.4.8.4 1.3 0 1.5-1.1 2.3-2.4 2.3-.2 0-.4 0-.6-.1-.4.1-.6.3-.6.6 0 .6.7.7 1.8.8 1.3.2 2.4.5 2.4 1.7s-1.2 2.1-3 2.1c-1.5 0-2.6-.6-2.6-1.8 0-.8.5-1.4 1.3-1.7-.6-.2-.9-.9-.7-1.5.1-.3.3-.5.6-.6-.7-.4-1.1-1.2-1.1-2 0-1.3 1-2.3 2.3-2.3h.1c.4 0 .7.1 1 .2h2.1l.1 1zm-2.9 5.7c-.2 0-.4-.1-.6-.1-.8.3-1.2.7-1.2 1.3 0 .8.8 1.2 1.9 1.2 1.1 0 2-.5 2-1.2-.1-.9-1.1-1.1-2.1-1.2m1.4-4.3c.1-.8-.6-1.6-1.4-1.6h-.2c-.8-.1-1.5.5-1.6 1.3v.2c0 .8.6 1.5 1.5 1.5h.2c1 .1 1.5-.5 1.5-1.4M509.6 28.7v-3.9c0-.5-.1-1-.3-1.5l1.2-.2v5.6c0 .4 0 .8.1 1.2h-1.1c0-.5.1-.8.1-1.2M512 24c-.5 0-1.1.1-1.6.4.3-.9 1-1.3 2.1-1.3h.5l-.1 1c-.2-.1-.5-.1-.9-.1zM513.8 28.3c0-1.1.7-1.6 1.9-1.8l1.7-.2v-1.1c0-.8-.4-1.2-1.3-1.2-.7 0-1.4.2-2.1.6v-1c.7-.3 1.4-.5 2.1-.5 1.2 0 2.1.5 2.1 1.8 0 1.2-.1 2.6-.1 3.8 0 .3.1.5.4.6h.1c.2 0 .4 0 .5-.1v.6c-.2.2-.5.2-.8.2-.6 0-1-.4-1.1-1v-2.1l-1.7.2c-.5 0-1 .4-1 .9 0 .8.5 1.1 1.3 1.1.5 0 1-.1 1.4-.4-.1.8-.8 1.2-1.8 1.2-.9.1-1.7-.6-1.8-1.5.2 0 .2-.1.2-.1M521.1 28.7v-3.9c0-.5-.1-1-.3-1.5l1.2-.2v5.6c0 .4 0 .8.1 1.2H521c.1-.5.1-.8.1-1.2m4.2 0v-3.3c0-1-.5-1.5-1.5-1.5-.6 0-1.2.1-1.7.4.3-.9 1-1.3 2.1-1.3 1.4 0 2.1.8 2.1 2.1v3.6c0 .4 0 .8.1 1.2h-1.1c-.1-.5 0-.8 0-1.2m4.1 0v-3.3c0-1-.5-1.5-1.5-1.5-.6 0-1.2.1-1.7.4.3-.9 1-1.3 2.1-1.3 1.4 0 2.1.8 2.1 2.1v3.6c0 .4 0 .8.1 1.2h-1.1v-1.2M532.3 28.3c0-1.1.7-1.6 1.9-1.8l1.7-.2v-1.1c0-.8-.4-1.2-1.3-1.2-.7 0-1.4.2-2.1.6v-1c.7-.3 1.4-.5 2.1-.5 1.2 0 2.1.5 2.1 1.8 0 1.2-.1 2.6-.1 3.8 0 .3.1.5.4.6h.1c.2 0 .4 0 .5-.1v.6c-.2.2-.5.2-.8.2-.6 0-1-.4-1.1-1v-2.1l-1.7.2c-.5 0-1 .4-1 .9 0 .8.5 1.1 1.3 1.1.5 0 1-.1 1.4-.4-.2.8-.8 1.2-1.7 1.2-.9.1-1.7-.6-1.8-1.5.1 0 .1-.1.1-.1M482 41.6c0-2.1 1.3-3.5 3.1-3.5.6 0 1.1.1 1.6.3V36c0-.5-.1-1.1-.3-1.6l1.2-.2-.1 7.8v1.6c0 .4.2.6.6.6.2 0 .3 0 .5-.1v.6c-.2.2-.5.2-.8.2-.6 0-1.1-.4-1.1-1v-4.8c-.6-.2-1.1-.3-1.7-.3-1.3 0-2.2 1-2.2 2.6 0 1.8.8 2.7 2.4 2.7.5 0 1-.1 1.5-.4-.1.6-.7 1.1-1.8 1.1-1.7.2-2.9-1-2.9-3.2M490 41.7c0-2.2 1.2-3.6 2.9-3.6 1.6 0 2.5 1 2.5 2.9v.5h-4.5v.3c0 1.3.9 2.4 2.6 2.4.6 0 1.3-.1 1.9-.4v.8c-.7.3-1.4.4-2.1.4-2.1 0-3.3-1.3-3.3-3.3m4.5-.9c0-1.2-.6-1.9-1.7-1.9s-1.7.7-1.9 1.9h3.6zM501.5 43.4c.1-2.3.2-4.2.3-6.4v-2.4h.9l4 8.4 3.8-8.4h.8c0 .7 0 1.3.1 2 .1 2.2.1 4.5.2 6.7 0 .6.1 1.1.1 1.6h-1.3c.1-.5.1-1 .1-1.5l-.2-6.4-3.4 7.5h-.7l-3.5-7.4h-.1l-.2 6.4c0 .5 0 1 .1 1.5h-1.3c.2-.6.2-1.1.3-1.6M515 42.9v-3.1c0-.5-.1-1-.3-1.5l1.2-.2v4.6c0 1 .5 1.5 1.5 1.5.6 0 1.2-.2 1.7-.5-.2.9-.9 1.3-2.1 1.3-1.1 0-2-.6-2-2.1m4.2 1v-4c0-.5-.1-1.1-.3-1.6l1.2-.2v3c0 .9-.1 1.7-.1 2.5 0 .3.1.5.4.6h.1c.2 0 .3 0 .5-.1v.6c-.2.2-.5.2-.8.2-.6 0-1-.4-1-1zM522.8 44.4v-1c.6.5 1.4.7 2.1.8.7 0 1.1-.3 1.1-.9 0-.6-.7-.9-1.4-1.2-.9-.4-1.9-.8-1.9-2s.9-2 2.2-2c.6 0 1.2.1 1.8.4v1c-.6-.3-1.2-.5-1.9-.5-.8 0-1.2.3-1.2 1s.7 1 1.5 1.3c.9.3 1.9.7 1.9 1.9s-.8 1.8-2.1 1.8c-.8 0-1.5-.2-2.1-.6M528.7 41.7c0-2.2 1.2-3.6 2.9-3.6 1.6 0 2.5 1 2.5 2.9v.5h-4.5v.3c0 1.3.9 2.4 2.6 2.4.6 0 1.3-.1 1.9-.4v.8c-.7.3-1.4.4-2.1.4-2.1 0-3.3-1.3-3.3-3.3m4.5-.9c0-1.2-.6-1.9-1.7-1.9s-1.7.7-1.9 1.9h3.6zM535.6 41.6c0-2 1.2-3.5 3-3.5s3 1.4 3 3.4-1.1 3.4-3 3.4c-1.8.1-3-1.3-3-3.3m5.1.2c0-1.7-.8-2.8-2.1-2.8s-2.1 1-2.1 2.6.9 2.7 2.2 2.7c1.3-.1 2-1 2-2.5M543.5 44.4v-1c.6.5 1.4.7 2.1.8.7 0 1.1-.3 1.1-.9 0-.6-.7-.9-1.4-1.2-.9-.4-1.9-.8-1.9-2s.9-2 2.2-2c.6 0 1.2.1 1.8.4v1c-.6-.3-1.2-.5-1.9-.5-.8 0-1.2.3-1.2 1s.7 1 1.5 1.3c.9.3 1.9.7 1.9 1.9s-.8 1.8-2.1 1.8c-.8 0-1.5-.2-2.1-.6"/></g><g fill="#0E2537"><path d="M27.3 23h.3v-.5h.3v-.3h-.3V22h-.3v.3H27v.3h.2l.1.4zm-.9 1.3h.3v-1.2h-.3v1.2zm2.4-.6s-.1-.1-.2-.1H28.3v-.2h.1c.1 0 .2 0 .3.1l.1-.2c-.1-.1-.2-.1-.4-.1-.1 0-.3 0-.4.1-.1.1-.1.2-.1.3 0 .1 0 .2.1.3.1.1.1.1.2.1h.2v.1c0 .1 0 .1-.1.1h-.1c-.1 0-.2 0-.3-.1l-.1.2c.1.1.3.1.4.1.1 0 .3 0 .4-.1.1-.1.1-.2.1-.3.3-.2.2-.3.1-.3zm-1.1-.2h-.4v-.4H27v1.2h.3v-.5h.4v.5h.3v-1.2h-.3v.4zM25.5 29h-.7l-.5-.5-.6.5H23v.7l-.5.5.5.5v.7h.7l.5.5.5-.5h.7v-.7l.5-.5-.5-.5V29zm-.5 1.6v.4h-.4l-.3.3-.4-.3h-.4v-.4l-.3-.3.3-.3v-.4h.4l.3-.3.3.3h.5v.4l.3.3-.3.3m.8 11c.2.1.3.3.5.3.6-.3 1-.9 1-1.6h-.5c0 .6-.4 1.1-1 1.3m.8-1.8h-.5c0 .5-.3 1-.8 1.2.1.1.2.3.4.4.5-.3.9-.9.9-1.6m12-8.5H37c-.2-.4-.5-.7-.9-.9.6-.1 1-.6 1-1.2v-.1c0-.7-.6-1.3-1.3-1.3h-.1c-.1-.2-.1-.4-.1-.6v-.1c0-.5.1-1 .3-1.5.2-.8.4-1.6.4-2.4V23c0-1-.5-2-1.2-2.7-.8-.7-1.8-1-2.9-.9-.2 0-.4 0-.6.1.2-.1.3-.3.4-.4l2-3.3-.3-.7H33s-.1.2-.2.3c-.1-.1-.3-.2-.3-.2l-.6.3v.7l.3.2-.2.3c-.3-.2-.7-.5-1.1-.6.1-.2.1-.4.2-.6l.4.1.6-.5-.2-.7-.4-.1c0-.1.1-.4.1-.4l-.5-.6-.7.2s-.1.2-.1.4c-.1 0-.4-.1-.4-.1l-.6.5.3.7s.2.1.4.1c-.1.2-.1.4-.2.6-.5-.1-.9-.2-1.4-.2v-.7h.4l.5-.7-.5-.7h-.5V13l-.7-.5-.7.5v.4h-.4l-.5.7.5.7h.4v.7c-.5 0-1 .1-1.4.2-.1-.2-.1-.4-.2-.6.1 0 .4-.1.4-.1l.2-.7-.6-.5s-.2.1-.4.1c0-.1-.1-.4-.1-.4l-.8-.1-.5.6s.1.3.1.4l-.4.1-.2.6.6.5s.2-.1.4-.1c.1.2.1.4.2.6-.4.2-.8.4-1.1.6-.1-.1-.1-.1-.2-.3l.3-.2v-.7l-.6-.3s-.2.1-.3.2l-.3-.2h-.7l-.3.6 2 3.3c.1.2.2.3.4.4-.2-.1-.4-.1-.6-.1-1-.1-2.1.2-2.9.9-.7.7-1.2 1.7-1.2 2.7v.3c0 .8.2 1.6.4 2.4.2.5.3 1 .3 1.5v.1c0 .2-.1.4-.1.6-.7 0-1.3.5-1.3 1.2v.2c0 .6.4 1.1 1 1.2-.4.2-.7.5-.9.9h-1.6L15 32.9l1.3 1.4c0 .8-.2 1.6-.5 2.3-.9 2-.2 4.3 1.5 5.6.6.5 1.3.8 2 .9.5.1.9.2 1.3.4.7.3 1.3.8 1.7 1.4l.1.1c2.1 2.9 6.2 3.5 9.1 1.4.5-.4 1-.8 1.4-1.4l.1-.1c.4-.6 1-1.1 1.7-1.4.4-.2.9-.3 1.3-.4.8-.1 1.5-.4 2.1-.9 1.1-.9 1.8-2.2 1.8-3.7 0-.7-.1-1.3-.4-1.9-.3-.7-.5-1.5-.5-2.3l1.3-1.4-1.7-1.6zm-2 .2s0 .1.1.1l.1.1c.1.4.2.7.2 1.1 0 .8-.1 1.5-.3 2.2-.4 1.3-.8 2.5-1.4 3.7-.3-.2-.5-.7-.5-.7l-1 .3c.4-.6 1-1.6 1.7-2.7.5-.8.7-1.7.8-2.6 0-.3 0-.7-.2-1 0-.1-.1-.1-.1-.2-.2-.4-.6-.6-1-.6-.5 0-1 .4-1 1h.5c0-.2.3-.4.5-.4s.4.1.5.2l.1.1v.1c0 .1.1.2.1.3 0 .5-.4.9-.9.9h-.1c-.7 0-1.2-.5-1.2-1.2 0-.8.7-1.4 1.5-1.4.6-.1 1.2.2 1.6.7m-14.5.7c0-2.2.4-4.4 1.2-6.4v2.6l1-1 1 1v-2.3l4.8 3.2h-3.9l1 1-1 1h6.7v1H22.1zm10.8.5c0 2.5-.5 5-1.6 7.2-1 2-2.4 3-3.8 3s-2.8-1.1-3.8-3c-1.1-2.3-1.7-4.7-1.7-7.2h10.9zm-12.3-6.3c-.2-.7-.3-1.4-.3-2.1v-.5c0-.9.5-1.8 1.4-2.2.1-.1.3-.1.4-.2-.2.2-.3.5-.3.7v.1c0 .8.6 1.4 1.4 1.5h.4c-.2.3-.3.5-.5.9-1 2-1.5 4.1-1.6 6.3-.4-.5-.9-.7-1.5-.8.5-.5.8-1.2.8-1.9V28c0-.6 0-1.1-.2-1.6m9.2-4.3c-.3-.2-.7-.4-1.1-.6 0-.4.1-.8.2-1.1.6-.1 1.2-.2 1.8-.4l-.3.3c-.4.5-.6 1.2-.6 1.8M27.5 20c-2.4 0-3.9-.7-4.1-1.1 0-.6 1.6-1.5 4.1-1.5 2.4 0 4.1.9 4.1 1.5-.1.3-1.7 1.1-4.1 1.1m.9.4c-.1.3-.2.6-.2.9-.5-.1-1-.1-1.5 0 0-.3 0-.6-.1-.9h.9c.3 0 .6.1.9 0m-2.4 0c.2.4.3.7.2 1.1-.4.2-.8.4-1.1.6 0-.7-.2-1.3-.6-1.8l-.3-.3c.6.2 1.2.3 1.8.4m1.5 1.4c1.4 0 2.8 1.1 3.8 3 .6 1.2 1 2.4 1.2 3.7l-7.8-5.2c.6-.9 1.7-1.4 2.8-1.5m5.2 7.4c.1.4.1.8.2 1.3l-9-5.9c.2-.3.3-.6.5-.8l8.3 5.4zm-5.3.6h3.4l1.5 1h-4.9l.5-.5-.5-.5m-2.7-4.1v1.4l-.5-.5-.5.5v-2l1 .6zm7-1.1c-.1-.3-.3-.6-.5-.8h.4c.8 0 1.4-.7 1.4-1.4v-.1c0-.3-.1-.5-.3-.7.2 0 .3.1.4.2.8.4 1.4 1.2 1.4 2.2v.5c0 .7-.1 1.4-.3 2.1-.1.5-.2 1.1-.2 1.6v.3c0 .7.2 1.4.8 1.9-.6 0-1.1.3-1.5.8 0-2.4-.6-4.6-1.6-6.6m.5-4.6c.9-.1 1.8.2 2.5.8.6.6 1 1.4 1 2.3 0 .9-.1 1.7-.4 2.5-.2.6-.3 1.2-.3 1.8 0 .8.3 1 .3 1l.1.1h.1c.4-.1.9.2.9.6v.2c0 .4-.4.8-.8.7-.8 0-1.1-.9-1.1-1.7 0-.6.1-1.2.2-1.8.2-.9.3-1.8.3-2.7 0-1.1-.7-2.1-1.7-2.6-.7-.4-1.5-.4-2.1 0-.3.2-.5.5-.5.8h.5c0-.3.2-.5.5-.5.2 0 .3 0 .5.2.2.1.2.3.3.5.1.5-.3 1-.8 1h-.1c-.3 0-.6-.1-.9-.3-.2-.2-.4-.5-.4-.9 0-.5.1-1.1.5-1.5.3-.2.8-.4 1.4-.5m-9.1-1.6c-.5-.9-1.4-2.4-1.5-2.5l.1-.1h.1c.1.1.3.5.3.5l.5-.3h.1v.1c-.1.1-.5.3-.5.3l.7 1.2.2-.2c.4-.3.9-.6 1.4-.8l.2-.1-.4-1.5-.6.2c-.1 0-.1 0-.1-.1-.1 0 0-.1 0-.1l.6-.2s-.1-.5-.2-.6l.1-.1.1.1c0 .1.2.6.2.6l.6-.2.1.1v.1l-.6.2.4 1.6.2-.1 1.8-.3h.2v-1.9h-.7l-.1-.2c.1-.1.1-.1.1-.2h.7v-.7c.1-.1.1-.1.2-.1l.2.1v.7h.7c0 .1.1.1.1.2-.1.1-.1.1-.1.2h-.7v1.8h.2c.6 0 1.2.1 1.8.3l.3.1.4-1.6-.6-.2v-.1l.1-.1.6.2.2-.6s.1 0 .1-.1l.1.1c0 .1-.2.6-.2.6l.6.2v.1l-.1.1-.6-.2-.4 1.6.2.1c.5.2 1 .5 1.4.8l.2.2.1-.3.6-.9-.3-.3V16h.1l.5.3.3-.5h.1v.1c-.1.2-1 1.7-1.5 2.5-.6-.8-2.3-1.4-4.4-1.4-1.8-.1-3.6.5-4.2 1.4m-4.6 10.8c0-.4.3-.8.8-.8H19.6l.1-.1c.1-.1.3-.3.4-1.1 0-.6-.1-1.2-.3-1.8-.3-.8-.4-1.6-.4-2.5 0-.9.4-1.7 1-2.3.7-.6 1.6-.8 2.5-.8.5 0 1 .3 1.4.6.4.4.5.9.5 1.5 0 .3-.2.6-.4.9-.2.2-.6.3-.9.3-.5 0-.9-.4-1-.9v-.1c0-.2.1-.4.3-.5.1-.1.3-.2.5-.2.3 0 .5.2.5.5h.5c0-.3-.2-.7-.5-.8-.7-.4-1.5-.4-2.2 0-1 .5-1.7 1.5-1.7 2.7-.1.9 0 1.8.3 2.7.2.6.2 1.2.2 1.8-.1.8-.4 1.7-1.2 1.7-.4 0-.8-.3-.7-.8m-.3 2.6c0-.1 0-.1.1-.1l.1-.1c.3-.6 1-.9 1.6-.8.8 0 1.5.6 1.5 1.4 0 .6-.5 1.2-1.1 1.2h-.1c-.5 0-.9-.3-1-.8v-.1c0-.1 0-.2.1-.3v-.1s0-.1.1-.1c.1-.2.3-.2.5-.2.3 0 .5.2.5.4v.1h.5c0-.6-.5-1-1-1-.4 0-.8.2-1 .6 0 .1-.1.1-.1.2-.1.3-.2.6-.2 1 0 .9.3 1.8.8 2.6.7 1.1 1.3 2.1 1.7 2.7l-1-.3-.4.9c-.6-1.2-1-2.4-1.4-3.7-.2-.7-.4-1.5-.4-2.2 0-.6.1-.9.2-1.3m-.3 5.3c.1-.2.2-.5.3-.7v-.1c.4 1.2.9 2.3 1.4 3.4l.3.5s.5-1.2.6-1.5l1.8.5-.4-.6s-1-1.5-2.1-3.3c-.3-.5-.5-1.1-.6-1.7.3.2.6.4 1 .4.5 0 .9-.2 1.3-.6.1 2.4.6 4.8 1.7 6.9 1.1 2.1 2.6 3.3 4.2 3.3s3.1-1.2 4.2-3.3c1-2.2 1.6-4.5 1.7-6.9.3.4.8.6 1.3.6.4 0 .7-.1 1-.4-.1.6-.3 1.2-.6 1.7-1.1 1.8-2 3.3-2 3.3l-.4.6 1.8-.5c.1.3.6 1.5.6 1.5l.3-.5c.5-1.1 1-2.2 1.4-3.4v.1c.1.2.1.5.3.7.2.4.3.9.3 1.3 0 .3-.1 1.8-2.1 2.2-1.1.2-2.2.7-3 1.3-.5.4-1 .9-1.4 1.4l-.3.3c-1.5 1.7-4.1 1.9-5.8.4l-.4-.4-.3-.3c-.4-.5-.9-1-1.4-1.4-.9-.7-1.9-1.2-3-1.3-2-.4-2.1-1.9-2.1-2.2 0-.5.1-.9.3-1.3m-2.5-4.3.6-.7v1.3l-.6-.6zm23.6 3.9c.7 1.8.2 3.8-1.3 4.9-.5.4-1.2.7-1.8.8-.5.1-1 .3-1.4.5-.8.3-1.4.9-1.9 1.5l-.1.1c-2 2.7-5.7 3.2-8.4 1.3-.5-.4-.9-.8-1.3-1.3l-.1-.1c-.5-.7-1.1-1.2-1.9-1.5-.5-.2-1-.4-1.5-.5-.7-.1-1.3-.4-1.8-.8-1-.8-1.6-2-1.7-3.3 0-.6.1-1.2.3-1.7.5-1.1.7-2.2.6-3.4v-1.5h1c-.1.4-.2.7-.2 1.1 0 .8.1 1.5.4 2.3 0 .3-.1.7-.2 1-.1.2-.1.4-.2.6-.2.5-.3 1-.4 1.5 0 1.4 1.1 2.6 2.5 2.7 1 .2 2 .6 2.8 1.2.5.4.9.8 1.3 1.3.1.1.2.2.3.4 1.7 1.9 4.6 2.1 6.5.4.1-.1.3-.2.4-.4.1-.1.2-.2.3-.4 1-1.3 2.5-2.2 4.1-2.5 1.4-.2 2.5-1.3 2.5-2.7 0-.5-.1-1-.4-1.5-.1-.2-.2-.4-.2-.6-.1-.3-.2-.7-.2-1 .2-.7.3-1.5.4-2.3 0-.4 0-.7-.2-1.1h1v1.5c.1 1.3.3 2.5.8 3.5m-.1-3.2v-1.4l.7.7-.7.7zM2.4 55h100V5H2.4v50zm50-49.3h49.3v48.5H52.4V5.7zm-49.3 0h48.6v48.6H3.1V5.7zm21 32.2c0 .6.4 1 1 1h.2v.4c0 .4-.2.8-.5 1.1.1.1.2.3.3.4.5-.3.7-.9.7-1.5v-.9h-.7c-.3 0-.5-.2-.5-.5v-.1c0-.2-.1-.4-.3-.5-.2-.1-.3-.3-.3-.5v-.2c0-.2-.1-.3-.3-.4-.4-.2-.7-.7-.7-1.2v-.3l1.6.5 1.6 1.9.9-.8v-1.1h-.5c.2-.3.5-.5.8-.5.4 0 .8.3.9.8l.4 1.5 1.5-1.8 1.6-.5v.3c0 .5-.2 1-.7 1.2-.2.1-.3.3-.3.4v.2c0 .2-.1.4-.3.5-.2.1-.4.3-.4.5v.2c0 .3-.2.5-.5.5h-1.2c0 .6-.2 1.1-.6 1.6-.3.3-.3.7-.1 1.1.2.3.4.6.8.8.2-.1.3-.2.5-.3-.4-.1-.7-.4-.8-.7-.1-.2-.1-.4.1-.6.2-.2.4-.5.5-.8.1-.2.1-.4.2-.6h.8c.6 0 1-.4 1-1 .4-.1.7-.5.7-.9v-.3c.6-.3.9-.9.9-1.6 0-.3-.1-.6-.2-.9l-2.2.6-1 1.2s-.1-.3-.1-.5c-.1-.3-.3-.6-.6-.8l.5-1.1-.9.2-.5-.9-.5.6-.8-.2.5 1.1c-.4.3-.6.7-.6 1.1v.1h.6v.4l-.3.3-1.4-1.7-2.2-.6c-.2.3-.2.6-.2.9 0 .7.4 1.3.9 1.6v.3c0 .5.3.9.7 1m3.1-3.7.2-.3.2.3h.2l-.1.2h-.8l.1-.2h.2zM118.1 25v4.8c0 1.7-1.2 2.6-2.8 2.6-1.6 0-2.8-.8-2.8-2.5V26c0-.3 0-.7-.1-1h.9v4.6c0 1.5.8 2.2 2.2 2.2 1.2 0 2-.6 2-2v-4.7l.6-.1zM120 31.6v-2.8c0-.4-.1-.7-.2-1l.8-.2v4c0 .3 0 .5.1.8h-.7v-.8m3 0v-2.3c0-.7-.3-1.1-1.1-1.1-.4 0-.9.1-1.2.3.2-.6.8-1 1.5-.9.7-.1 1.4.5 1.5 1.2v2.8c0 .3 0 .5.1.8h-.8v-.8M125.2 26.2c0-.2.1-.5.4-.5h.1c.3 0 .5.2.5.4 0 .3-.2.5-.4.5h-.1c-.3.1-.5-.1-.5-.4m.2 5.4v-2.8c0-.4-.1-.7-.2-1l.8-.2v4c0 .3 0 .5.1.8h-.8c.1-.3.1-.6.1-.8M128.5 31l-1.3-3.4h.8c0 .3.1.5.2.8l1.1 3.1h.1l1.1-3.1c.1-.2.2-.5.2-.8h.8l-.4.9-1 2.5c-.2.4-.3.9-.4 1.3h-.8c-.1-.4-.2-.9-.4-1.3M132.1 30.1c0-1.6.8-2.5 2.1-2.5 1.2 0 1.8.8 1.8 2.3h-3.3v.3c-.1.9.7 1.7 1.6 1.8h.3c.5 0 .9-.1 1.3-.3v.6c-.5.2-1 .3-1.5.3-1.4-.1-2.2-1-2.3-2.5m3.3-.7c.1-.6-.4-1.2-1-1.2h-.2c-.7 0-1.3.5-1.4 1.3h2.6zM137.4 31.6v-2.8c0-.4-.1-.7-.2-1l.8-.1v4c0 .3 0 .5.1.8h-.8c.1-.4.1-.7.1-.9m2.1-4.1h.4v.7c-.2-.1-.4-.1-.6-.1-.4 0-.9.1-1.3.3.2-.6.8-1 1.5-.9M140.5 32v-.7c.4.3 1 .5 1.5.5s.8-.2.8-.7c0-1-2.3-.7-2.3-2.3 0-.8.6-1.4 1.3-1.4h.2c.4 0 .9.1 1.3.3v.7c-.4-.3-.9-.4-1.4-.4-.5 0-.9.2-.9.7 0 1.1 2.4.7 2.4 2.3 0 .9-.6 1.3-1.5 1.3-.4.1-1 0-1.4-.3M144.7 26.2c0-.3.2-.5.4-.5h.1c.3 0 .5.2.5.4v.1c0 .3-.1.5-.4.5h-.1c-.2 0-.5-.2-.5-.5m.2 5.4v-2.8c0-.4-.1-.7-.2-1l.8-.2v4c0 .3 0 .5.1.8h-.8c.1-.3.1-.6.1-.8M146.8 30c0-1.5.9-2.5 2.2-2.5.4 0 .8.1 1.2.2v-1.8c0-.4-.1-.7-.2-1.1l.8-.2-.1 5.7v1.1c0 .3.1.4.4.4.1 0 .2 0 .4-.1v.4c-.2.1-.4.2-.6.2-.4 0-.7-.3-.8-.7v-3.4c-.4-.1-.8-.2-1.2-.2-.9 0-1.5.7-1.5 1.9 0 1.3.6 1.9 1.7 1.9.4 0 .7-.1 1.1-.3-.1.4-.5.8-1.3.8-1.2.1-2.1-.7-2.1-2.3M152.3 31.2c0-.8.5-1.1 1.3-1.3l1.3-.2V29c0-.6-.3-.9-1-.9-.5 0-1 .2-1.5.5v-.7c.5-.2 1-.4 1.5-.4.9 0 1.5.4 1.5 1.3s-.1 1.9-.1 2.7c0 .2.1.4.3.4h.1c.1 0 .3 0 .4-.1v.4c-.2.1-.4.2-.6.2-.4 0-.7-.3-.8-.7v-1.5l-1.3.2c-.4.1-.7.2-.7.6 0 .6.4.8.9.8.3 0 .7-.1 1-.3-.1.5-.5.8-1.3.8-.5.2-1-.4-1-1.1-.1.1-.1.1 0 0M156.9 30c0-1.5.9-2.5 2.2-2.5.4 0 .8.1 1.2.2v-1.8c0-.4-.1-.7-.2-1.1l.8-.2-.1 5.7v1.1c0 .3.1.4.4.4.1 0 .2 0 .4-.1v.4c-.2.1-.4.2-.6.2-.4 0-.7-.3-.8-.7v-3.4c-.4-.1-.8-.2-1.3-.2-.9 0-1.5.7-1.5 1.9 0 1.3.6 1.9 1.7 1.9.4 0 .7-.1 1.1-.3-.1.4-.5.8-1.3.8-1.1.1-2-.7-2-2.3M113.2 37.4v4.9c0 .3 0 .9.1 1.2h-.9c0-.3.1-.8.1-1.2v-6.2h.6l5.1 6.1v-4.3c0-.7 0-1.4-.1-1.7h.9c0 .3 0 .7-.1 1.1 0 .8-.1 3.4-.1 4.4v1.8h-.5l-5.1-6.1zM120.7 42.4c0-.8.5-1.1 1.3-1.3l1.3-.2v-.8c0-.6-.3-.9-1-.9-.5 0-1 .2-1.5.5V39c.5-.2 1-.4 1.5-.4.9 0 1.5.4 1.5 1.3s-.1 1.9-.1 2.7c0 .2.1.4.3.4h.1c.1 0 .2 0 .4-.1v.4c-.2.1-.4.2-.6.2-.4 0-.7-.3-.8-.7v-1.5l-1.3.2c-.4.1-.7.2-.7.6 0 .6.4.8.9.8.3 0 .7-.1 1-.3-.1.5-.5.8-1.3.8-.4.2-1-.3-1-1M125.3 41.2c0-1.5.9-2.5 2.2-2.5.5 0 .9.1 1.3.3v.7c-.4-.2-.9-.4-1.4-.4-1 0-1.6.7-1.6 1.9-.1.9.5 1.8 1.5 1.9h.3c.4 0 .8-.1 1.1-.2v.6c-.4.1-.8.2-1.2.2-1.2.1-2.2-.9-2.3-2.1.1-.2.1-.3.1-.4M129.8 37.3c0-.3.2-.5.4-.6.3 0 .5.2.6.4v.1c0 .3-.2.5-.4.5h-.1c-.3.1-.5-.1-.5-.4 0 .1 0 0 0 0m.2 5.4v-2.8c0-.4-.1-.7-.2-1l.8-.2v4c0 .3 0 .5.1.8h-.8c0-.3.1-.6.1-.8M131.9 41.1c0-1.4.8-2.5 2.2-2.5s2.2 1 2.2 2.5-.8 2.5-2.1 2.5c-1.4-.1-2.3-1.1-2.3-2.5m3.7.1c0-1.2-.5-2-1.5-2s-1.5.7-1.5 1.8.6 1.9 1.6 1.9c.9.1 1.4-.6 1.4-1.7M137.8 42.7v-2.8c0-.4-.1-.7-.2-1l.8-.2v4c0 .3 0 .5.1.8h-.8c0-.3.1-.5.1-.8m2.9 0v-2.3c0-.7-.3-1.1-1.1-1.1-.4 0-.9.1-1.3.3.3-.8 1.2-1.2 2-.8.6.2.9.8 1 1.4v3.3h-.8c.2-.3.2-.6.2-.8M142.7 42.4c0-.8.5-1.1 1.3-1.3l1.3-.2v-.8c0-.6-.3-.9-1-.9-.5 0-1 .2-1.5.5V39c.5-.2 1-.4 1.5-.4.9 0 1.5.4 1.5 1.3s-.1 1.9-.1 2.7c0 .3.1.4.4.4.1 0 .3 0 .4-.1v.4c-.2.1-.4.2-.6.2-.4 0-.7-.3-.8-.7v-1.5l-1.3.2c-.4.1-.7.2-.7.6 0 .6.4.8.9.8.4 0 .7-.1 1-.3-.1.5-.5.8-1.3.8-.5.2-1-.3-1-1-.1 0-.1 0 0 0M147.8 42.7v-5.5c0-.4-.1-.8-.3-1.1l.9-.3v6.9c0 .3 0 .6.1.8h-.9c.2-.3.2-.6.2-.8M111.6 52.3c0-1.5.9-2.5 2.2-2.5.4 0 .8.1 1.2.2v-1.8c0-.4-.1-.7-.2-1.1l.8-.2-.1 5.7v1.1c0 .3.1.4.4.4.1 0 .2 0 .4-.1v.4c-.2.1-.4.2-.6.2-.4 0-.7-.3-.8-.7v-3.4c-.4-.1-.8-.2-1.2-.2-.9 0-1.5.7-1.5 1.9 0 1.3.6 1.9 1.7 1.9.4 0 .7-.1 1.1-.3-.1.4-.5.8-1.3.8-1.2.1-2-.7-2.1-2.3M117.2 52.3c0-1.6.8-2.5 2.1-2.5s1.8.8 1.8 2.3h-3.3v.3c-.1.9.7 1.7 1.6 1.8h.3c.5 0 .9-.1 1.3-.3v.6c-.5.2-1 .3-1.5.3-1.5-.1-2.3-1-2.3-2.5m3.2-.6c.1-.6-.4-1.2-1-1.2h-.2c-.7 0-1.3.5-1.4 1.3h2.6zM125.2 51c0-2.3 1.5-3.8 3.7-3.8.8 0 1.5.1 2.2.4l.1 1c-.7-.5-1.5-.7-2.4-.6-1.7 0-2.9 1.1-2.9 3 0 2.1 1.4 3.1 3.2 3.1.7 0 1.4-.1 2-.4v.6c-.7.3-1.5.5-2.3.4-2 0-3.6-1.3-3.6-3.7M136.5 52.2c0 1.4-.8 2.5-2.1 2.5s-2.2-1-2.2-2.4.8-2.5 2.2-2.5c1.2 0 2.1 1 2.1 2.4m-.7.2c0-1.2-.5-2-1.5-2s-1.5.7-1.5 1.8.6 1.9 1.6 1.9c.9.1 1.4-.6 1.4-1.7m-2.1-3-.2-.3c.5-.3 1.2-.8 1.5-1 .2-.1.3-.1.3-.1.1 0 .1 0 .1.1s.2.3.3.5v.1s0 .1-.1.1l-1.9.6M137.9 53.8V51c0-.4-.1-.7-.2-1l.8-.2v4c0 .3 0 .5.1.8h-.8c.1-.3.1-.5.1-.8m2.1-4h.4v.7c-.2-.1-.4-.1-.6-.1-.4 0-.9.1-1.3.3.2-.6.8-1 1.5-.9M140.8 52.3c0-1.5.9-2.5 2.2-2.5.4 0 .8.1 1.2.2v-1.8c0-.4-.1-.7-.2-1.1l.8-.2-.1 5.7v1.1c0 .3.1.4.4.4.1 0 .2 0 .4-.1v.4c-.2.1-.4.2-.6.2-.4 0-.7-.3-.8-.7v-3.4c-.4-.1-.8-.2-1.2-.2-.9 0-1.5.7-1.5 1.9 0 1.3.6 1.9 1.7 1.9.4 0 .7-.1 1.1-.3-.1.4-.5.8-1.3.8-1.3.1-2.1-.7-2.1-2.3M146.3 52.3c0-1.4.8-2.5 2.2-2.5 1.3 0 2.2 1 2.2 2.5s-.8 2.5-2.1 2.5-2.3-1.1-2.3-2.5m3.7.1c0-1.2-.5-2-1.5-2s-1.5.7-1.5 1.8.6 1.9 1.6 1.9 1.4-.6 1.4-1.7M152.1 54.2v-5.9c0-.4-.1-.8-.3-1.1l.9-.3v6.9c.3.2.7.3 1.1.3.9 0 1.6-.7 1.7-1.6v-.2c0-1.2-.5-2-1.6-2-.4 0-.8.1-1.1.3.2-.6.7-1 1.4-.9 1.3 0 2 1 2 2.5.1 1.3-.9 2.4-2.2 2.4h-.1c-.7.1-1.3-.1-1.8-.4M157 53.5c0-.8.5-1.1 1.3-1.3l1.3-.2v-.8c0-.6-.3-.9-1-.9-.5 0-1 .2-1.5.5v-.7c.5-.2 1-.4 1.5-.4.9 0 1.5.4 1.5 1.3s-.1 1.9-.1 2.7c0 .2.1.4.3.4h.1c.1 0 .3 0 .4-.1v.4c-.2.1-.4.2-.6.2-.4 0-.7-.3-.8-.7v-1.5l-1.3.2c-.4.1-.7.2-.7.6 0 .6.4.8.9.8.4 0 .7-.1 1-.3-.1.5-.5.8-1.3.8-.5.2-1-.3-1-1"/><path d="M71.3 25.9v5.3c0 2-1.4 3.3-3.7 3.3-2.2 0-3.6-1.1-3.6-3.3V27c0-.4 0-.8-.1-1.2h1.7c0 .4-.1.8-.1 1.2v3.9c0 1.5.8 2.3 2.2 2.3 1.1.1 2-.7 2.1-1.7V25.9h1.5zM75.6 28.2v5.1c0 .4 0 .9.1 1.3H74c.2-1.6.3-3.2.2-4.9V25.9h1.5l4.8 5.9h.1v-3.5c0-.8 0-1.6-.1-2.4h1.6c-.1.8-.1 1.6-.1 2.4v4.4c0 .7 0 1.3.1 2h-1.2l-5.3-6.5zM84.3 30.3c0-2.6 1.7-4.5 4.4-4.5.9 0 1.7.1 2.5.4 0 .6-.1 1.2-.1 1.8-.7-.5-1.6-.8-2.5-.8-1.6 0-2.7 1.2-2.7 3 0 2.1 1.3 3.2 3 3.2.7 0 1.5-.2 2.1-.5v1.3c-.8.3-1.6.4-2.5.4-2.4 0-4.2-1.5-4.2-4.3"/></g><g fill="#0E2537" fill-rule="evenodd" clip-rule="evenodd"><path d="M208.9 30.2c0 2.9 2.4 5.3 5.3 5.3s5.3-2.4 5.3-5.3-2.4-5.3-5.3-5.3c-3 0-5.3 2.4-5.3 5.3M229.4 44.7c0 2.9 2.4 5.3 5.3 5.3s5.3-2.4 5.3-5.3-2.4-5.3-5.3-5.3-5.3 2.4-5.3 5.3m3.1 0c0 1.2 1 2.2 2.2 2.2s2.2-1 2.2-2.2c0-1.2-1-2.2-2.2-2.2-1.2 0-2.2 1-2.2 2.2M232.6 15.3l-4.9 2.1 4.9 2.1 2.1 5.3 2.1-5.3 4.9-2.1-4.9-2.1-2.1-5.3z"/></g><path fill="#0E2537" d="M247.6 33.8V27l-1.3-2.7 4.9-1.6v10.5c0 1.5 1 2.3 2.3 2.3 1 0 2-.3 2.6-.9-.4 2.1-2.1 3.2-4.2 3.2-2.4.1-4.3-1.3-4.3-4m8.4.6c0-.9.1-2.5.1-3.8V27l-1.3-2.7 4.9-1.6c0 2.9 0 5.3-.1 8.2 0 1.2-.1 2.6-.1 3.6 0 .7.4 1.1 1.1 1.1.6 0 1.1-.1 1.5-.3-.1.8-.4 1.4-.8 1.9-.5.4-1.1.6-2 .6-2 .1-3.3-1.1-3.3-3.4M301.8 30.8c0-4.4 3-7.6 7.1-7.6 3.6 0 5.9 2.3 5.9 5.9v.7h-9v.7c0 3.3 2 5.2 5.2 5.2 1.3 0 2.4-.2 3.5-.7-.2.8-.7 1.6-1.4 2-.8.5-1.9.8-3.5.8-4.9.1-7.8-2.4-7.8-7m9.2-2.3c0-1.8-.5-3.6-2.4-3.6-1.8 0-2.8 2.1-2.9 4l5.3-.4zM368 35.4c-.1.6-.3 1.2-.7 1.7-.5.5-1.3.8-2.3.8-1.8 0-2.9-.8-3.2-2.4-.4 1.4-1.4 2.4-3.3 2.4-2.4 0-3.8-1.1-3.8-3.4 0-2.2 1.5-3.2 3.7-3.6l3.4-.6c0-.7.1-1.6.1-2.5 0-1.3-.9-2-2.6-2-1.6 0-3 .4-4.2 1 .1-.8.4-1.5.8-2 1-1.1 2.6-1.6 4.4-1.6 3.3 0 5.4 1.4 5.4 4s-.3 5-.3 7.4c0 .8.4 1.2 1.1 1.2.6 0 1.1-.2 1.5-.4m-6.2 0c-.1-.3-.1-.6-.1-1 0-1 0-2 .1-2.9l-1.9.2c-1.1.1-1.6.8-1.6 2 0 1.3.9 2 1.9 2 .6.1 1.2-.1 1.6-.3"/><g fill="#0E2537"><path d="M273.6 35.3v-7.1c0-1.6-.9-2.5-2.4-2.5-1.1 0-1.9.4-2.7 1.3v8.2c0 1.2.3 1.8 1.8 2.5h-7.1c1.3-.6 1.8-1.3 1.8-2.5V27c-.5-.9-.9-1.8-1.3-2.7l4.9-1.6v4.2c.7-2.7 2.2-3.8 4.6-3.8 2.6 0 4.1 1.7 4.1 4.4v7.8c0 1.2.3 1.7 1.8 2.3H272c1.1-.6 1.6-1.1 1.6-2.3M280.7 30.8c0-4.6 2.9-7.7 6.8-7.7 1.7 0 3.2.3 4.2.8l.3 2.8c-1.1-.8-2.4-1.5-4-1.5-2.3 0-3.6 1.9-3.6 4.9 0 3.4 1.6 5.5 4.4 5.5 1.4 0 2.4-.3 3.3-.7-.4 2.2-2.2 2.8-4.7 2.8-4 .2-6.7-2.4-6.7-6.9M294.6 35.2V27c-.5-.9-.9-1.8-1.3-2.7l4.9-1.6v12.4c0 1.2.3 1.8 1.8 2.5h-7.1c1.2-.6 1.7-1.3 1.7-2.4m-.7-16.7c0-1.1.9-2.1 2.2-2.1 1.1 0 2.2 1 2.2 2.1s-1 2.1-2.2 2.1c-1.1 0-2.2-1-2.2-2.1"/></g><g fill="#0E2537"><path d="M326.6 35.3v-7.1c0-1.6-.9-2.5-2.4-2.5-1.1 0-1.9.4-2.7 1.3v8.2c0 1.2.3 1.8 1.8 2.5h-7.1c1.3-.6 1.8-1.3 1.8-2.5V27c-.5-.9-.9-1.8-1.3-2.7l4.9-1.6v4.2c.7-2.7 2.2-3.8 4.6-3.8 2.6 0 4.1 1.7 4.1 4.4v7.8c0 1.2.3 1.7 1.8 2.3H325c1.2-.6 1.6-1.1 1.6-2.3M333.7 30.8c0-4.6 2.9-7.7 6.8-7.7 1.7 0 3.2.3 4.2.8l.3 2.8c-1.1-.8-2.4-1.5-4-1.5-2.3 0-3.6 1.9-3.6 4.9 0 3.4 1.6 5.5 4.4 5.5 1.4 0 2.4-.3 3.3-.7-.4 2.2-2.2 2.8-4.7 2.8-4 .2-6.7-2.4-6.7-6.9M347.6 35.2V27c-.5-.9-.9-1.8-1.3-2.7l4.9-1.6v12.4c0 1.2.3 1.8 1.8 2.5h-7.1c1.3-.6 1.7-1.3 1.7-2.4m-.6-16.7c0-1.1.9-2.1 2.2-2.1 1.1 0 2.2 1 2.2 2.1s-1 2.1-2.2 2.1c-1.1 0-2.2-1-2.2-2.1"/></g></svg>