<svg xmlns="http://www.w3.org/2000/svg" xml:space="preserve" viewBox="0 0 640 660"><path fill="#031F30" d="M0 0h640v660H0z"/><circle cx="180.1" cy="616.2" r="3.5" fill="#FDDDBA" opacity=".331"/><circle cx="436.6" cy="616.2" r="30.2" fill="#FDDDBA" opacity=".331"/><path fill="none" stroke="#FDDDBA" stroke-linecap="round" stroke-linejoin="round" stroke-miterlimit="10" d="M180.6 616.2H437"/><text fill="#FDDDBA" font-family="monospace" font-size="12" transform="translate(177.862 631.813)">1</text><path fill="none" stroke="#FDDDBA" stroke-linecap="round" stroke-linejoin="round" stroke-miterlimit="10" stroke-width=".5" d="M214.145 616.3v5.4"/><text fill="#FDDDBA" font-family="monospace" font-size="12" transform="translate(211.407 631.813)">2</text><path fill="none" stroke="#FDDDBA" stroke-linecap="round" stroke-linejoin="round" stroke-miterlimit="10" stroke-width=".5" d="M325.577 616.3v5.4"/><text fill="#FDDDBA" font-family="monospace" font-size="12" transform="translate(320.058 631.813)">20</text><text fill="#FDDDBA" font-family="monospace" font-size="12" transform="translate(428.71 631.813)">200</text><circle cx="437" cy="616.2" r="3.5" fill="#FDDDBA" opacity=".331"/><path fill="none" stroke="#068B78" stroke-dasharray="1,2.5" stroke-linecap="round" d="M399.5 204.4h82.2v-20.2h91.6v21.9h-190v76.8h-1.4v14.4h30.7v33.4H378v1.5h-14.5v11.1h-20.3v-6.7m-64.1 27.6h-32.4v-5.3h35.6v-50.6h-70.5v-1.9h51.6v-27.6"/><g transform="translate(450 450)"><circle cx="-112.8" cy="-292.9" r="10.3" fill="none" stroke="#7e939f" stroke-opacity=".3" pointer-events="none"/><circle cx="-93.9" cy="-401.5" r="24.8" fill="none" stroke="#7e939f" stroke-opacity=".3" pointer-events="none"/><circle cx="-88.9" cy="-351.7" r="15.8" fill="#DC6006"/></g><g fill="none" stroke="#7e939f" stroke-opacity=".3" pointer-events="none" transform="translate(450 450)"><circle cx="-47" cy="-379.2" r="6.2"/><circle cx="-26.9" cy="-338.4" r="12.4"/></g><g transform="translate(450 450)"><circle cx="-103.7" cy="-188.4" r="14.5" fill="none" stroke="#7e939f" stroke-opacity=".3" pointer-events="none"/><circle cx="-34.6" cy="-275.7" r="9.1" fill="none" stroke="#7e939f" stroke-opacity=".3" pointer-events="none"/><circle cx="-50.5" cy="-245.6" r="7.6" fill="#EB7311"/><circle cx="-33.4" cy="-255" r="5.6" fill="none" stroke="#7e939f" stroke-opacity=".3" pointer-events="none"/></g><g transform="translate(450 450)"><circle cx="63.5" cy="-318.3" r="5.7" fill="none" stroke="#7e939f" stroke-opacity=".3" pointer-events="none"/><circle cx="49.1" cy="-291.2" r="16.3" fill="none" stroke="#7e939f" stroke-opacity=".3" pointer-events="none"/><circle cx="31.7" cy="-265.8" r="14.8" fill="#F8BC53"/><circle cx="34.1" cy="-255.7" r="9.8" fill="none" stroke="#7e939f" stroke-opacity=".3" pointer-events="none"/></g><g transform="translate(450 450)"><circle cx="-39" cy="-201.4" r="11.9" fill="none" stroke="#7e939f" stroke-opacity=".3" pointer-events="none"/><circle cx="7.5" cy="-214.1" r="9" fill="none" stroke="#7e939f" stroke-opacity=".3" pointer-events="none"/><circle cx="123.3" cy="-243.9" r="27" fill="#771B0C"/><circle cx="16.6" cy="-201.2" r="6.5" fill="none" stroke="#7e939f" stroke-opacity=".3" pointer-events="none"/></g><g transform="translate(450 450)"><circle cx="129" cy="-202.6" r="5.2" fill="none" stroke="#7e939f" stroke-opacity=".3" pointer-events="none"/><circle cx="-43.9" cy="-172.2" r="8" fill="none" stroke="#7e939f" stroke-opacity=".3" pointer-events="none"/><circle cx="-66.7" cy="-167.1" r="5" fill="#F8BC53"/><circle cx="-8.4" cy="-163.4" r="5" fill="none" stroke="#7e939f" stroke-opacity=".3" pointer-events="none"/></g><g transform="translate(450 450)"><circle cx="103.2" cy="-137.4" r="6.3" fill="none" stroke="#7e939f" stroke-opacity=".3" pointer-events="none"/><circle cx="-46" cy="-151.7" r="8" fill="none" stroke="#7e939f" stroke-opacity=".3" pointer-events="none"/><circle cx="-68.1" cy="-152.7" r="5" fill="#F9A237"/><circle cx="48.9" cy="-115.2" r="9.5" fill="none" stroke="#7e939f" stroke-opacity=".3" pointer-events="none"/></g><g transform="translate(450 450)"><circle cx="112.3" cy="-67.8" r="5.2" fill="none" stroke="#7e939f" stroke-opacity=".3" pointer-events="none"/><circle cx="-39" cy="-125.8" r="8.1" fill="none" stroke="#7e939f" stroke-opacity=".3" pointer-events="none"/><circle cx="-37.4" cy="-119.3" r="6.9" fill="#F58A22"/></g><g transform="translate(450 450)"><circle cx="57.7" cy="-24.5" r="6.2" fill="none" stroke="#7e939f" stroke-opacity=".3" pointer-events="none"/><circle cx="12.6" cy="-47.9" r="11.3" fill="none" stroke="#7e939f" stroke-opacity=".3" pointer-events="none"/><circle cx="-72.1" cy="-117.8" r="5.5" fill="#C84F02"/></g><g transform="translate(450 450)"><circle cx="23.4" cy="32.3" r="5.5" fill="none" stroke="#7e939f" stroke-opacity=".3" pointer-events="none"/><circle cx="-49.5" cy="-56.1" r="8.8" fill="none" stroke="#7e939f" stroke-opacity=".3" pointer-events="none"/><circle cx="-86.6" cy="-106.7" r="5.5" fill="#F9A237"/></g><g transform="translate(450 450)"><circle cx="-40" cy="50.3" r="6.1" fill="none" stroke="#7e939f" stroke-opacity=".3" pointer-events="none"/><circle cx="-96.2" cy="-88.7" r="8" fill="none" stroke="#7e939f" stroke-opacity=".3" pointer-events="none"/><circle cx="-106.9" cy="-113.4" r="5" fill="#F0D675"/><circle cx="-93.9" cy="-31" r="6.2" fill="none" stroke="#7e939f" stroke-opacity=".3" pointer-events="none"/></g><circle cx="-98.8" cy="90.6" r="5" fill="none" stroke="#7e939f" stroke-opacity=".3" pointer-events="none" transform="translate(450 450)"/><g fill="none" stroke="#7e939f" stroke-opacity=".3" pointer-events="none" transform="translate(450 450)"><circle cx="-167.4" cy="80.6" r="5.3"/><circle cx="-184.8" cy="10.2" r="10.9"/></g><g transform="translate(450 450)"><circle cx="-219.1" cy="33.2" r="6.4" fill="none" stroke="#7e939f" stroke-opacity=".3" pointer-events="none"/><circle cx="-197.3" cy="-29.4" r="9.8" fill="none" stroke="#7e939f" stroke-opacity=".3" pointer-events="none"/><circle cx="-170.9" cy="-85.8" r="6.9" fill="#F8BC53"/><circle cx="-252.8" cy="18" r="18.9" fill="none" stroke="#7e939f" stroke-opacity=".3" pointer-events="none"/></g><g transform="translate(450 450)"><circle cx="-279.5" cy="10.8" r="5.8" fill="none" stroke="#7e939f" stroke-opacity=".3" pointer-events="none"/><circle cx="-238.1" cy="-48.3" r="10.4" fill="none" stroke="#7e939f" stroke-opacity=".3" pointer-events="none"/><circle cx="-203.3" cy="-91.1" r="7.9" fill="#C84F02"/><circle cx="-297.5" cy="-24.4" r="19" fill="none" stroke="#7e939f" stroke-opacity=".3" pointer-events="none"/></g><g transform="translate(450 450)"><circle cx="-150.7" cy="-145.6" r="14.1" fill="none" stroke="#7e939f" stroke-opacity=".3" pointer-events="none"/><circle cx="-322" cy="-53.1" r="22" fill="none" stroke="#7e939f" stroke-opacity=".3" pointer-events="none"/><circle cx="-167.7" cy="-141.8" r="5" fill="#F0D675"/><circle cx="-275.1" cy="-100" r="8.7" fill="none" stroke="#7e939f" stroke-opacity=".3" pointer-events="none"/></g><g transform="translate(450 450)"><circle cx="-136.5" cy="-160" r="14.9" fill="none" stroke="#7e939f" stroke-opacity=".3" pointer-events="none"/><circle cx="-275.7" cy="-128.1" r="10.1" fill="none" stroke="#7e939f" stroke-opacity=".3" pointer-events="none"/><circle cx="-238.2" cy="-143.7" r="8.5" fill="#F58A22"/></g><g transform="translate(450 450)"><circle cx="-135.7" cy="-164.7" r="15" fill="none" stroke="#7e939f" stroke-opacity=".3" pointer-events="none"/><circle cx="-375.9" cy="-175.4" r="35" fill="none" stroke="#7e939f" stroke-opacity=".3" pointer-events="none"/><circle cx="-186.6" cy="-171.3" r="5.5" fill="#EB7311"/><circle cx="-269.1" cy="-187.5" r="7.1" fill="none" stroke="#7e939f" stroke-opacity=".3" pointer-events="none"/></g><g fill="none" stroke="#7e939f" stroke-opacity=".3" pointer-events="none" transform="translate(450 450)"><circle cx="-139.7" cy="-170.2" r="14.8"/><circle cx="-305.1" cy="-225.1" r="13.4"/></g><g transform="translate(450 450)"><circle cx="-317.5" cy="-281.5" r="6.1" fill="none" stroke="#7e939f" stroke-opacity=".3" pointer-events="none"/><circle cx="-209.4" cy="-224.6" r="8.3" fill="none" stroke="#7e939f" stroke-opacity=".3" pointer-events="none"/><circle cx="-162.4" cy="-196.8" r="5" fill="#F8BC53"/><circle cx="-316.2" cy="-329.2" r="29.9" fill="none" stroke="#7e939f" stroke-opacity=".3" pointer-events="none"/></g><circle cx="-297.4" cy="-349.9" r="5" fill="none" stroke="#7e939f" stroke-opacity=".3" pointer-events="none" transform="translate(450 450)"/><g fill="none" stroke="#7e939f" stroke-opacity=".3" pointer-events="none" transform="translate(450 450)"><circle cx="-237.2" cy="-384" r="5.3"/><circle cx="-202.3" cy="-407.5" r="30"/></g><g transform="translate(450 450)"><circle cx="-168.9" cy="-385.9" r="6.2" fill="none" stroke="#7e939f" stroke-opacity=".3" pointer-events="none"/><circle cx="-140.2" cy="-288" r="8.7" fill="none" stroke="#7e939f" stroke-opacity=".3" pointer-events="none"/><circle cx="-130.1" cy="-258.5" r="6.9" fill="#F0D675"/><circle cx="-129.5" cy="-341.7" r="9.6" fill="none" stroke="#7e939f" stroke-opacity=".3" pointer-events="none"/></g><circle cx="573.3" cy="206.1" r="31" fill="none" stroke="#771B0C" stroke-miterlimit="10" stroke-width="2"/></svg>
