<svg xmlns="http://www.w3.org/2000/svg" xml:space="preserve" viewBox="0 0 640 660"><path fill="#031F30" d="M0 0h640v660H0z"/><path fill="none" stroke="#FFCF5E" stroke-dasharray="1,2.5" stroke-linecap="round" d="M415.4 174.3h83.7v-15.5h-41.6v77.1h-51.4v41.9h-2v20.5h6.9v25.9h51.6v77.9h-62.1v-8.2h-46.7v-32.6m-101.1 59.3H212v-18.9h-84v-4.8h46.3v-75H74.1v-47.4H145v-49.7h95.6v.5"/><g transform="translate(450 450)"><circle cx="-112.8" cy="-292.9" r="10.3" fill="none" stroke="#7e939f" stroke-opacity=".3" pointer-events="none"/><circle cx="-93.9" cy="-401.5" r="24.8" fill="#C84F02"/><circle cx="-88.9" cy="-351.7" r="15.8" fill="none" stroke="#7e939f" stroke-opacity=".3" pointer-events="none"/></g><g fill="none" stroke="#7e939f" stroke-opacity=".3" pointer-events="none" transform="translate(450 450)"><circle cx="-47" cy="-379.2" r="6.2"/><circle cx="-26.9" cy="-338.4" r="12.4"/></g><g transform="translate(450 450)"><circle cx="-103.7" cy="-188.4" r="14.5" fill="none" stroke="#7e939f" stroke-opacity=".3" pointer-events="none"/><circle cx="-34.6" cy="-275.7" r="9.1" fill="#DC6006"/><circle cx="-50.5" cy="-245.6" r="7.6" fill="none" stroke="#7e939f" stroke-opacity=".3" pointer-events="none"/><circle cx="-33.4" cy="-255" r="5.6" fill="none" stroke="#7e939f" stroke-opacity=".3" pointer-events="none"/></g><g transform="translate(450 450)"><circle cx="63.5" cy="-318.3" r="5.7" fill="none" stroke="#7e939f" stroke-opacity=".3" pointer-events="none"/><circle cx="49.1" cy="-291.2" r="16.3" fill="#B24301"/><circle cx="31.7" cy="-265.8" r="14.8" fill="none" stroke="#7e939f" stroke-opacity=".3" pointer-events="none"/><circle cx="34.1" cy="-255.7" r="9.8" fill="none" stroke="#7e939f" stroke-opacity=".3" pointer-events="none"/></g><g transform="translate(450 450)"><circle cx="-39" cy="-201.4" r="11.9" fill="none" stroke="#7e939f" stroke-opacity=".3" pointer-events="none"/><circle cx="7.5" cy="-214.1" r="9" fill="#F8BC53"/><circle cx="123.3" cy="-243.9" r="30" fill="none" stroke="#7e939f" stroke-opacity=".3" pointer-events="none"/><circle cx="16.6" cy="-201.2" r="6.5" fill="none" stroke="#7e939f" stroke-opacity=".3" pointer-events="none"/></g><g transform="translate(450 450)"><circle cx="129" cy="-202.6" r="5.2" fill="none" stroke="#7e939f" stroke-opacity=".3" pointer-events="none"/><circle cx="-43.9" cy="-172.2" r="8" fill="#F58A22"/><circle cx="-66.7" cy="-167.1" r="5" fill="none" stroke="#7e939f" stroke-opacity=".3" pointer-events="none"/><circle cx="-8.4" cy="-163.4" r="5" fill="none" stroke="#7e939f" stroke-opacity=".3" pointer-events="none"/></g><g transform="translate(450 450)"><circle cx="103.2" cy="-137.4" r="6.3" fill="none" stroke="#7e939f" stroke-opacity=".3" pointer-events="none"/><circle cx="-45.9" cy="-151.7" r="8" fill="#F9A237"/><circle cx="-68.1" cy="-152.7" r="5" fill="none" stroke="#7e939f" stroke-opacity=".3" pointer-events="none"/><circle cx="48.9" cy="-115.2" r="9.5" fill="none" stroke="#7e939f" stroke-opacity=".3" pointer-events="none"/></g><g transform="translate(450 450)"><circle cx="112.3" cy="-67.8" r="5.2" fill="none" stroke="#7e939f" stroke-opacity=".3" pointer-events="none"/><circle cx="-39" cy="-125.8" r="8.1" fill="#F9A237"/><circle cx="-37.4" cy="-119.3" r="6.9" fill="none" stroke="#7e939f" stroke-opacity=".3" pointer-events="none"/></g><g transform="translate(450 450)"><circle cx="57.7" cy="-24.5" r="6.2" fill="none" stroke="#7e939f" stroke-opacity=".3" pointer-events="none"/><circle cx="12.6" cy="-47.9" r="11.3" fill="#771B0C"/><circle cx="-72.1" cy="-117.8" r="5.5" fill="none" stroke="#7e939f" stroke-opacity=".3" pointer-events="none"/></g><g transform="translate(450 450)"><circle cx="23.4" cy="32.3" r="5.5" fill="none" stroke="#7e939f" stroke-opacity=".3" pointer-events="none"/><circle cx="-49.5" cy="-56.1" r="8.8" fill="#B24301"/><circle cx="-86.5" cy="-106.7" r="5.5" fill="none" stroke="#7e939f" stroke-opacity=".3" pointer-events="none"/></g><g transform="translate(450 450)"><circle cx="-40" cy="50.3" r="6.1" fill="none" stroke="#7e939f" stroke-opacity=".3" pointer-events="none"/><circle cx="-96.2" cy="-88.7" r="8" fill="#F58A22"/><circle cx="-106.9" cy="-113.4" r="5" fill="none" stroke="#7e939f" stroke-opacity=".3" pointer-events="none"/><circle cx="-93.9" cy="-31" r="6.2" fill="none" stroke="#7e939f" stroke-opacity=".3" pointer-events="none"/></g><circle cx="-98.8" cy="90.6" r="5" fill="none" stroke="#7e939f" stroke-opacity=".3" pointer-events="none" transform="translate(450 450)"/><g fill="none" stroke="#7e939f" stroke-opacity=".3" pointer-events="none" transform="translate(450 450)"><circle cx="-167.4" cy="80.6" r="5.3"/><circle cx="-184.8" cy="10.2" r="10.9"/></g><g transform="translate(450 450)"><circle cx="-219.1" cy="33.2" r="6.4" fill="none" stroke="#7e939f" stroke-opacity=".3" pointer-events="none"/><circle cx="-197.3" cy="-29.4" r="9.8" fill="#F9A237"/><circle cx="-170.9" cy="-85.8" r="6.9" fill="none" stroke="#7e939f" stroke-opacity=".3" pointer-events="none"/><circle cx="-252.8" cy="18" r="18.9" fill="none" stroke="#7e939f" stroke-opacity=".3" pointer-events="none"/></g><g transform="translate(450 450)"><circle cx="-279.5" cy="10.8" r="5.8" fill="none" stroke="#7e939f" stroke-opacity=".3" pointer-events="none"/><circle cx="-238" cy="-48.3" r="10.4" fill="#DC6006"/><circle cx="-203.3" cy="-91.1" r="7.9" fill="none" stroke="#7e939f" stroke-opacity=".3" pointer-events="none"/><circle cx="-297.5" cy="-24.4" r="19" fill="none" stroke="#7e939f" stroke-opacity=".3" pointer-events="none"/></g><g transform="translate(450 450)"><circle cx="-150.7" cy="-145.6" r="14.1" fill="none" stroke="#7e939f" stroke-opacity=".3" pointer-events="none"/><circle cx="-322" cy="-53.1" r="22" fill="#C84F02"/><circle cx="-167.7" cy="-141.8" r="5" fill="none" stroke="#7e939f" stroke-opacity=".3" pointer-events="none"/><circle cx="-275.1" cy="-100" r="8.7" fill="none" stroke="#7e939f" stroke-opacity=".3" pointer-events="none"/></g><g transform="translate(450 450)"><circle cx="-136.5" cy="-160" r="14.9" fill="none" stroke="#7e939f" stroke-opacity=".3" pointer-events="none"/><circle cx="-275.7" cy="-128.1" r="10.1" fill="#771B0C"/><circle cx="-238.2" cy="-143.7" r="8.5" fill="none" stroke="#7e939f" stroke-opacity=".3" pointer-events="none"/></g><g transform="translate(450 450)"><circle cx="-135.7" cy="-164.7" r="15" fill="none" stroke="#7e939f" stroke-opacity=".3" pointer-events="none"/><circle cx="-375.9" cy="-175.4" r="31" fill="#F8BC53"/><circle cx="-186.6" cy="-171.3" r="5.5" fill="none" stroke="#7e939f" stroke-opacity=".3" pointer-events="none"/><circle cx="-269.1" cy="-187.5" r="7.1" fill="none" stroke="#7e939f" stroke-opacity=".3" pointer-events="none"/></g><g transform="translate(450 450)"><circle cx="-139.7" cy="-170.2" r="14.8" fill="none" stroke="#7e939f" stroke-opacity=".3" pointer-events="none"/><circle cx="-305.1" cy="-225.1" r="13.4" fill="#EB7311"/></g><g transform="translate(450 450)"><circle cx="-317.5" cy="-281.5" r="6.1" fill="none" stroke="#7e939f" stroke-opacity=".3" pointer-events="none"/><circle cx="-209.4" cy="-224.6" r="8.3" fill="#F58A22"/><circle cx="-162.4" cy="-196.8" r="5" fill="none" stroke="#7e939f" stroke-opacity=".3" pointer-events="none"/><circle cx="-316.2" cy="-329.2" r="29.9" fill="none" stroke="#7e939f" stroke-opacity=".3" pointer-events="none"/></g><circle cx="-297.4" cy="-349.9" r="5" fill="none" stroke="#7e939f" stroke-opacity=".3" pointer-events="none" transform="translate(450 450)"/><g fill="none" stroke="#7e939f" stroke-opacity=".3" pointer-events="none" transform="translate(450 450)"><circle cx="-237.2" cy="-384" r="5.3"/><circle cx="-202.3" cy="-407.5" r="30"/></g><g transform="translate(450 450)"><circle cx="-168.9" cy="-385.9" r="6.2" fill="none" stroke="#7e939f" stroke-opacity=".3" pointer-events="none"/><circle cx="-140.2" cy="-288" r="8.7" fill="#F58A22"/><circle cx="-130.1" cy="-258.5" r="6.9" fill="none" stroke="#7e939f" stroke-opacity=".3" pointer-events="none"/><circle cx="-129.5" cy="-341.7" r="9.6" fill="none" stroke="#7e939f" stroke-opacity=".3" pointer-events="none"/></g><circle cx="74.1" cy="274.6" r="36" fill="none" stroke="#F8BC53" stroke-miterlimit="10" stroke-width="2"/><circle cx="435.3" cy="615.9" r="35.1" fill="#FDDDBA" opacity=".331"/><g transform="translate(0 150)"><path fill="none" stroke="#FDDDBA" stroke-linecap="round" stroke-linejoin="round" stroke-miterlimit="10" d="M179.4 466.4h256.4"/><text fill="#FDDDBA" font-family="monospace" font-size="12" transform="translate(176.575 482.006)">1</text><path fill="none" stroke="#FDDDBA" stroke-linecap="round" stroke-linejoin="round" stroke-miterlimit="10" stroke-width=".5" d="M224.291 466.4v5.5"/><text fill="#FDDDBA" font-family="monospace" font-size="12" transform="translate(218.685 482.006)">10</text><path fill="none" stroke="#FDDDBA" stroke-linecap="round" stroke-linejoin="round" stroke-miterlimit="10" stroke-width=".5" d="M269.183 466.4v5.5"/><text fill="#FDDDBA" font-family="monospace" font-size="12" transform="translate(260.796 482.006)">100</text><path fill="none" stroke="#FDDDBA" stroke-linecap="round" stroke-linejoin="round" stroke-miterlimit="10" stroke-width=".5" d="M314.074 466.4v5.5"/><text fill="#FDDDBA" font-family="monospace" font-size="12" transform="translate(308.749 482.006)">1k</text><path fill="none" stroke="#FDDDBA" stroke-linecap="round" stroke-linejoin="round" stroke-miterlimit="10" stroke-width=".5" d="M358.965 466.4v5.5"/><text fill="#FDDDBA" font-family="monospace" font-size="12" transform="translate(350.86 482.006)">10k</text><path fill="none" stroke="#FDDDBA" stroke-linecap="round" stroke-linejoin="round" stroke-miterlimit="10" stroke-width=".5" d="M403.856 466.4v5.5"/><text fill="#FDDDBA" font-family="monospace" font-size="12" transform="translate(392.97 482.006)">100k</text><circle cx="178.9" cy="465.9" r="7.8" fill="#FDDDBA" opacity=".331"/></g><circle cx="435.8" cy="615.9" r="7.8" fill="#FDDDBA" opacity=".331"/></svg>
