<svg xmlns="http://www.w3.org/2000/svg" xmlns:xlink="http://www.w3.org/1999/xlink" xml:space="preserve" viewBox="0 0 400 170"><defs><path id="a" d="M286.9 21.4c0-7.5 4.9-13 12.5-13 7.3 0 12.4 5.4 12.4 12.6 0 7.5-4.8 13-12.6 13-7.2-.1-12.3-5.5-12.3-12.6zm22.2-.1c0-5.9-3.9-10.5-10.1-10.5-5.7 0-9.5 4.3-9.5 10.3s3.9 10.7 10.1 10.7c6.4-.1 9.5-4.6 9.5-10.5z"/><path id="b" d="M368.2 30.3c.1-2.5.1-6.3.1-9.7 0-3.6 0-5.6-.1-8.3 0-1.2-.1-2.4-.2-3.6h11.5v2.4c-.9-.1-1.9-.1-2.7-.1h-6v8.5h5.2c.8 0 1.9 0 2.7-.1v2.2c-.9-.1-1.9-.1-2.7-.1h-5.2v10.2h6.4c.8 0 1.9 0 2.7-.1v2.1H368c.1-.9.1-2.2.2-3.4z"/><path id="c" d="M341 72.7c-.4-.2-.5-.4-.5-.8 0-.6.1-2 .2-2.7 1.6 1.5 3.5 2.3 5.6 2.3 2.7 0 4.5-1.4 4.5-4.1 0-2.5-2.3-3.9-4.6-5.4-2.5-1.8-5.1-3.7-5.1-7.4 0-3.8 2.5-6.1 6.6-6.1 2.3 0 3.9.6 4.6.6v3.3c-1.5-1.1-3.1-1.6-5.1-1.6-2.1 0-3.9 1.1-3.9 3.5 0 2.7 2.5 4.2 4.9 5.9 2.5 1.7 4.9 3.6 4.9 7.1 0 4-2.9 6.5-7.6 6.5-1.7 0-3.3-.4-4.5-1.1z"/></defs><g fill="#fdddba"><path d="M261.5 12.9h-.1v16.7c0 1.1.1 3.1.2 4.1h-2.9c.1-1.3.2-2.8.3-4.4.1-2.9.1-13.5.1-15V8.6h2l16.4 20.9h.2V14.7c0-2.4-.1-4.8-.2-6h3c-.1 1.1-.2 2.4-.2 4-.1 2.8-.2 11.6-.2 15.1v6.1h-1.9l-16.7-21z"/><use xlink:href="#a"/><path d="M315.9 21.4c0-7.7 5-13.1 12.7-13.1 3.2 0 5.7.6 7.6 1.4l.3 3.3c-2.3-1.6-4.9-2.4-8.2-2.4-5.8 0-9.8 4.2-9.8 10.5 0 7.1 4.9 10.7 11 10.7 2.6 0 5.1-.7 6.8-1.4v2.1c-1.9.9-4.7 1.4-7.7 1.4-7.3 0-12.7-4.5-12.7-12.5zM357.4 22.2h-14.2c0 3.1.1 5.8.2 8.1.1 1.3.1 2.4.2 3.4h-3.2c.1-.9.2-2.1.2-3.4.1-2.5.1-5.3.1-8.7 0-3.6 0-6.6-.1-9.3 0-1.2-.1-2.4-.2-3.6h3c-.1 1.1-.1 2.3-.2 3.4-.1 2.4-.1 4.9-.1 8h14.2c0-3 0-5.5-.1-7.9 0-1.2-.1-2.4-.2-3.6h3c-.1 1.1-.1 2.3-.2 3.4-.1 2.7-.1 5.7-.1 9.5 0 3.3 0 6.2.2 8.7.1 1.3.1 2.4.2 3.4h-3.2c.1-.9.2-2.1.2-3.4.4-2.2.3-5 .3-8z"/><use xlink:href="#b"/><path d="M259.6 73.5H258c.1-.9.2-2.1.2-3.4.1-2.5.1-5.3.1-8.7 0-3.6 0-6.6-.1-9.3 0-1.2-.1-2.4-.2-3.6h1.4c2 0 4.4-.1 6.8-.1 8.8 0 13.7 4.3 13.7 12.2 0 8.7-5.3 13.1-13.3 13.1-2.5.1-4.7-.2-7-.2zm17.6-12.4c0-7.2-4.7-10.6-11.9-10.6-1.8 0-3.2.1-4.3.3 0 1.7-.1 9.3-.1 11.5 0 2.9.1 5.9.2 9 1.8.4 4.3.6 5.8.6 6.5 0 10.3-3.8 10.3-10.8z"/><use xlink:href="#b" x="-82" y="39.9"/><path d="M310.5 70.2c.1-2.5.1-5.3.1-8.7 0-3.6 0-6.6-.1-9.3 0-1.2-.1-2.4-.2-3.6h3c-.1 1.1-.1 2.3-.2 3.4-.1 2.7-.1 5.7-.1 9.5v10h8.6c.9 0 1.9 0 2.7-.1v2.1h-14.1c.2-.9.3-2.1.3-3.3zm8.3-12.9c0-5.1 3.4-9 8.8-9 5.1 0 8.7 3.9 8.7 8.7 0 5-3.3 9-8.8 9-5.1 0-8.7-3.9-8.7-8.7zm15.1-.1c0-3.7-2.7-6.6-6.5-6.6-3.6 0-6.1 2.8-6.1 6.5 0 3.6 2.7 6.7 6.5 6.7s6.1-2.9 6.1-6.6z"/><use xlink:href="#c"/><path d="M258.9 109.8c.3-5.6.5-10.2.7-15.4 0-1.4.1-5 .1-5.8h2.2l9.7 20.3h.1l9.2-20.3h2c0 1.7.1 3.1.1 4.8.2 5.4.3 10.9.5 16.1.1 1.6.2 2.6.3 4h-3.1c.1-1.3.2-2.4.2-3.8l-.4-15.5h-.1l-8.2 18.1h-1.7l-8.5-18h-.1l-.5 15.5c0 1.3.1 2.5.2 3.7h-3.1c.2-1.3.4-2.5.4-3.7zM292.7 105c0-5.7 0-9.3-.1-13.1 0-1.1-.1-2.3-.2-3.5h3c-.1 1.2-.2 2.4-.2 3.5 0 4.1-.1 7.3-.1 12.3 0 4.9 2.9 7.1 7.3 7.1 4.1 0 6.8-2.1 6.8-6.8 0-4.4-.1-8.9-.1-13 0-1.1-.1-2.1-.2-3h2.9c-.1.8-.1 1.9-.1 3 0 4.7-.1 8.7-.1 13.4 0 5.8-4.2 8.8-9.5 8.8-5.4-.1-9.4-2.8-9.4-8.7z"/><use xlink:href="#c" x="-22" y="39.9"/><use xlink:href="#b" x="-31.1" y="79.7"/><use xlink:href="#a" x="66" y="79.7"/><use xlink:href="#c" x="42" y="39.9"/></g><g fill="none" stroke="#fdddba" stroke-dasharray="0,4" stroke-linecap="round" stroke-miterlimit="10" stroke-width="2"><path d="M8.3 147.3V85.2h45.2v75h46.7V45.3M132.4 116.7V10.8h35.2v50H188V10.9h44.4v148"/></g><g fill="#f75300"><circle cx="53.5" cy="159.2" r="4"/><circle cx="167.6" cy="59.3" r="2.7"/><circle cx="188.1" cy="11.4" r="3.1"/></g><g fill="#FC9400"><circle cx="100.3" cy="157.7" r="4.4"/><circle cx="132.5" cy="11.9" r="5.1"/><circle cx="8.9" cy="85.4" r="3"/><circle cx="233.1" cy="11.7" r="3.4"/></g><g fill="#fdddba"><circle cx="132.5" cy="116.7" r="4.4"/><circle cx="100.2" cy="45.3" r="3.1"/><circle cx="232.4" cy="158.9" r="3"/><circle cx="8.3" cy="148" r="3.3"/></g><g fill="#a8470b"><circle cx="53.5" cy="86" r="4.9"/><circle cx="188.1" cy="59.4" r="3.9"/></g><path fill="#FC9400" d="M281.6 126.8c-.1 1.1-.2 2.3-.3 3.7-.1 1.7-.2 8.9-.2 13 0 5.8-3.6 9.3-11.1 9.3-8 0-12-3.3-12-10.6 0-5.1-.1-10.5-.1-11.6-.1-1.4-.2-2.6-.3-3.7h9.7c-.1 1.1-.2 2.3-.3 3.7-.1 1.7-.2 9.2-.2 12.4 0 2.6 1.6 4.2 4.3 4.2s4.2-1.6 4.2-4c0-3.5-.1-11-.1-12.6-.1-1.4-.2-2.6-.3-3.7l6.7-.1z"/><path fill="#f75300" d="m306.3 152.6-14.5-13.2v2.6c0 3.7.1 7.5.4 10.6h-6.8c.7-5.1.8-12.9.8-19.7 0-2-.1-4.6-.2-6.1h4.8l13.9 12.3c0-3.6-.2-8.5-.4-12.1h7.1c-.4 3.6-.6 11-.6 16 0 3.6.1 7.1.4 9.7h-4.9v-.1z"/><path fill="#a8470b" d="M315.2 140c0-8.2 4.5-13.4 13.8-13.4 3.4 0 6.1.4 7.9 1l-.2 5.8c-1.6-1-3.1-1.9-5.5-1.9-3.6 0-5.7 3.2-5.7 8.3 0 5.6 2.7 8.3 6.3 8.3 1.9 0 3.6-.4 5-1.2v4.8c-1.8.7-4.5 1.1-7.3 1.1-9 0-14.3-4.2-14.3-12.8z"/></svg>